ISO-10303-21;
HEADER;
/* Generated by software containing ST-Developer
 * from STEP Tools, Inc. (www.steptools.com) 
 */
/* OPTION: using custom renumber hook */

FILE_DESCRIPTION(
/* description */ ('STEP AP242 Edition 2',
'CAx-IF Rec.Pracs.---Representation and Presentation of Product Manufa
cturing Information (PMI)---4.0---2014-10-13',
'CAx-IF Rec.Pracs.---3D Tessellated Geometry---0.4---2014-09-14','2;1',
'CAx-IF Rec.Pracs.---User Defined Attributes---1.5---2016-08-15'),
/* implementation_level */ '2;1');

FILE_NAME(
/* name */ 'Part Studio 1',
/* time_stamp */ '2026-07-29T17:51:47Z',
/* author */ (''),
/* organization */ (''),
/* preprocessor_version */ 'ST-DEVELOPER v20',
/* originating_system */ 'ONSHAPE BY PTC INC, 1.218',
/* authorisation */ '  ');

FILE_SCHEMA (('AP242_MANAGED_MODEL_BASED_3D_ENGINEERING_MIM_LF { 1 0 10303 442 3 1 4 }'));
ENDSEC;

DATA;
#10=SHAPE_REPRESENTATION_RELATIONSHIP('','',#235,#11);
#11=ADVANCED_BREP_SHAPE_REPRESENTATION('',(#233),#381);
#12=CYLINDRICAL_SURFACE('',#253,0.000908138971696788);
#13=CYLINDRICAL_SURFACE('',#254,0.00206558524287187);
#14=CYLINDRICAL_SURFACE('',#255,0.000908138971696788);
#15=CYLINDRICAL_SURFACE('',#256,0.00102522072474512);
#16=CYLINDRICAL_SURFACE('',#257,0.00206558524287187);
#17=CYLINDRICAL_SURFACE('',#258,0.00102522072474512);
#18=LINE('',#337,#30);
#19=LINE('',#340,#31);
#20=LINE('',#342,#32);
#21=LINE('',#344,#33);
#22=LINE('',#358,#34);
#23=LINE('',#361,#35);
#24=LINE('',#363,#36);
#25=LINE('',#365,#37);
#26=LINE('',#367,#38);
#27=LINE('',#368,#39);
#28=LINE('',#370,#40);
#29=LINE('',#371,#41);
#30=VECTOR('',#277,1.);
#31=VECTOR('',#278,1.);
#32=VECTOR('',#279,1.);
#33=VECTOR('',#280,1.);
#34=VECTOR('',#295,1.);
#35=VECTOR('',#296,1.);
#36=VECTOR('',#297,1.);
#37=VECTOR('',#298,1.);
#38=VECTOR('',#301,1.);
#39=VECTOR('',#302,1.);
#40=VECTOR('',#305,1.);
#41=VECTOR('',#306,1.);
#42=ORIENTED_EDGE('',*,*,#90,.T.);
#43=ORIENTED_EDGE('',*,*,#91,.F.);
#44=ORIENTED_EDGE('',*,*,#92,.T.);
#45=ORIENTED_EDGE('',*,*,#93,.F.);
#46=ORIENTED_EDGE('',*,*,#94,.F.);
#47=ORIENTED_EDGE('',*,*,#95,.T.);
#48=ORIENTED_EDGE('',*,*,#96,.T.);
#49=ORIENTED_EDGE('',*,*,#97,.T.);
#50=ORIENTED_EDGE('',*,*,#98,.F.);
#51=ORIENTED_EDGE('',*,*,#99,.F.);
#52=ORIENTED_EDGE('',*,*,#100,.F.);
#53=ORIENTED_EDGE('',*,*,#101,.F.);
#54=ORIENTED_EDGE('',*,*,#102,.F.);
#55=ORIENTED_EDGE('',*,*,#103,.T.);
#56=ORIENTED_EDGE('',*,*,#104,.T.);
#57=ORIENTED_EDGE('',*,*,#105,.T.);
#58=ORIENTED_EDGE('',*,*,#106,.F.);
#59=ORIENTED_EDGE('',*,*,#107,.F.);
#60=ORIENTED_EDGE('',*,*,#108,.T.);
#61=ORIENTED_EDGE('',*,*,#109,.T.);
#62=ORIENTED_EDGE('',*,*,#110,.F.);
#63=ORIENTED_EDGE('',*,*,#96,.F.);
#64=ORIENTED_EDGE('',*,*,#111,.T.);
#65=ORIENTED_EDGE('',*,*,#107,.T.);
#66=ORIENTED_EDGE('',*,*,#98,.T.);
#67=ORIENTED_EDGE('',*,*,#112,.T.);
#68=ORIENTED_EDGE('',*,*,#109,.F.);
#69=ORIENTED_EDGE('',*,*,#113,.F.);
#70=ORIENTED_EDGE('',*,*,#91,.T.);
#71=ORIENTED_EDGE('',*,*,#103,.F.);
#72=ORIENTED_EDGE('',*,*,#92,.F.);
#73=ORIENTED_EDGE('',*,*,#102,.T.);
#74=ORIENTED_EDGE('',*,*,#90,.F.);
#75=ORIENTED_EDGE('',*,*,#101,.T.);
#76=ORIENTED_EDGE('',*,*,#93,.T.);
#77=ORIENTED_EDGE('',*,*,#104,.F.);
#78=ORIENTED_EDGE('',*,*,#94,.T.);
#79=ORIENTED_EDGE('',*,*,#105,.F.);
#80=ORIENTED_EDGE('',*,*,#95,.F.);
#81=ORIENTED_EDGE('',*,*,#100,.T.);
#82=ORIENTED_EDGE('',*,*,#108,.F.);
#83=ORIENTED_EDGE('',*,*,#111,.F.);
#84=ORIENTED_EDGE('',*,*,#99,.T.);
#85=ORIENTED_EDGE('',*,*,#113,.T.);
#86=ORIENTED_EDGE('',*,*,#106,.T.);
#87=ORIENTED_EDGE('',*,*,#112,.F.);
#88=ORIENTED_EDGE('',*,*,#97,.F.);
#89=ORIENTED_EDGE('',*,*,#110,.T.);
#90=EDGE_CURVE('',#114,#114,#134,.T.);
#91=EDGE_CURVE('',#115,#115,#135,.T.);
#92=EDGE_CURVE('',#116,#116,#136,.T.);
#93=EDGE_CURVE('',#117,#117,#137,.T.);
#94=EDGE_CURVE('',#118,#118,#138,.T.);
#95=EDGE_CURVE('',#119,#119,#139,.T.);
#96=EDGE_CURVE('',#120,#121,#18,.T.);
#97=EDGE_CURVE('',#121,#122,#19,.T.);
#98=EDGE_CURVE('',#123,#122,#20,.T.);
#99=EDGE_CURVE('',#120,#123,#21,.T.);
#100=EDGE_CURVE('',#124,#124,#140,.F.);
#101=EDGE_CURVE('',#125,#125,#141,.F.);
#102=EDGE_CURVE('',#126,#126,#142,.F.);
#103=EDGE_CURVE('',#127,#127,#143,.T.);
#104=EDGE_CURVE('',#128,#128,#144,.T.);
#105=EDGE_CURVE('',#129,#129,#145,.T.);
#106=EDGE_CURVE('',#130,#131,#22,.T.);
#107=EDGE_CURVE('',#132,#130,#23,.T.);
#108=EDGE_CURVE('',#132,#133,#24,.T.);
#109=EDGE_CURVE('',#133,#131,#25,.T.);
#110=EDGE_CURVE('',#121,#130,#26,.T.);
#111=EDGE_CURVE('',#120,#132,#27,.T.);
#112=EDGE_CURVE('',#122,#131,#28,.T.);
#113=EDGE_CURVE('',#123,#133,#29,.T.);
#114=VERTEX_POINT('',#326);
#115=VERTEX_POINT('',#328);
#116=VERTEX_POINT('',#330);
#117=VERTEX_POINT('',#332);
#118=VERTEX_POINT('',#334);
#119=VERTEX_POINT('',#336);
#120=VERTEX_POINT('',#338);
#121=VERTEX_POINT('',#339);
#122=VERTEX_POINT('',#341);
#123=VERTEX_POINT('',#343);
#124=VERTEX_POINT('',#347);
#125=VERTEX_POINT('',#349);
#126=VERTEX_POINT('',#351);
#127=VERTEX_POINT('',#353);
#128=VERTEX_POINT('',#355);
#129=VERTEX_POINT('',#357);
#130=VERTEX_POINT('',#359);
#131=VERTEX_POINT('',#360);
#132=VERTEX_POINT('',#362);
#133=VERTEX_POINT('',#364);
#134=CIRCLE('',#238,0.000908138971696788);
#135=CIRCLE('',#239,0.000908138971696788);
#136=CIRCLE('',#240,0.00206558524287187);
#137=CIRCLE('',#241,0.00102522072474512);
#138=CIRCLE('',#242,0.00206558524287187);
#139=CIRCLE('',#243,0.00102522072474512);
#140=CIRCLE('',#245,0.00102522072474512);
#141=CIRCLE('',#246,0.000908138971696788);
#142=CIRCLE('',#247,0.00206558524287187);
#143=CIRCLE('',#248,0.000908138971696788);
#144=CIRCLE('',#249,0.00102522072474512);
#145=CIRCLE('',#250,0.00206558524287187);
#146=EDGE_LOOP('',(#42));
#147=EDGE_LOOP('',(#43));
#148=EDGE_LOOP('',(#44));
#149=EDGE_LOOP('',(#45));
#150=EDGE_LOOP('',(#46));
#151=EDGE_LOOP('',(#47));
#152=EDGE_LOOP('',(#48,#49,#50,#51));
#153=EDGE_LOOP('',(#52));
#154=EDGE_LOOP('',(#53));
#155=EDGE_LOOP('',(#54));
#156=EDGE_LOOP('',(#55));
#157=EDGE_LOOP('',(#56));
#158=EDGE_LOOP('',(#57));
#159=EDGE_LOOP('',(#58,#59,#60,#61));
#160=EDGE_LOOP('',(#62,#63,#64,#65));
#161=EDGE_LOOP('',(#66,#67,#68,#69));
#162=EDGE_LOOP('',(#70));
#163=EDGE_LOOP('',(#71));
#164=EDGE_LOOP('',(#72));
#165=EDGE_LOOP('',(#73));
#166=EDGE_LOOP('',(#74));
#167=EDGE_LOOP('',(#75));
#168=EDGE_LOOP('',(#76));
#169=EDGE_LOOP('',(#77));
#170=EDGE_LOOP('',(#78));
#171=EDGE_LOOP('',(#79));
#172=EDGE_LOOP('',(#80));
#173=EDGE_LOOP('',(#81));
#174=EDGE_LOOP('',(#82,#83,#84,#85));
#175=EDGE_LOOP('',(#86,#87,#88,#89));
#176=FACE_BOUND('',#146,.T.);
#177=FACE_BOUND('',#147,.T.);
#178=FACE_BOUND('',#148,.T.);
#179=FACE_BOUND('',#149,.T.);
#180=FACE_BOUND('',#150,.T.);
#181=FACE_BOUND('',#151,.T.);
#182=FACE_BOUND('',#152,.T.);
#183=FACE_BOUND('',#153,.T.);
#184=FACE_BOUND('',#154,.T.);
#185=FACE_BOUND('',#155,.T.);
#186=FACE_BOUND('',#156,.T.);
#187=FACE_BOUND('',#157,.T.);
#188=FACE_BOUND('',#158,.T.);
#189=FACE_BOUND('',#159,.T.);
#190=FACE_BOUND('',#160,.T.);
#191=FACE_BOUND('',#161,.T.);
#192=FACE_BOUND('',#162,.T.);
#193=FACE_BOUND('',#163,.T.);
#194=FACE_BOUND('',#164,.T.);
#195=FACE_BOUND('',#165,.T.);
#196=FACE_BOUND('',#166,.T.);
#197=FACE_BOUND('',#167,.T.);
#198=FACE_BOUND('',#168,.T.);
#199=FACE_BOUND('',#169,.T.);
#200=FACE_BOUND('',#170,.T.);
#201=FACE_BOUND('',#171,.T.);
#202=FACE_BOUND('',#172,.T.);
#203=FACE_BOUND('',#173,.T.);
#204=FACE_BOUND('',#174,.T.);
#205=FACE_BOUND('',#175,.T.);
#206=PLANE('',#237);
#207=PLANE('',#244);
#208=PLANE('',#251);
#209=PLANE('',#252);
#210=PLANE('',#259);
#211=PLANE('',#260);
#212=ADVANCED_FACE('',(#176,#177,#178,#179,#180,#181,#182),#206,.T.);
#213=ADVANCED_FACE('',(#183,#184,#185,#186,#187,#188,#189),#207,.F.);
#214=ADVANCED_FACE('',(#190),#208,.F.);
#215=ADVANCED_FACE('',(#191),#209,.T.);
#216=ADVANCED_FACE('',(#192,#193),#12,.F.);
#217=ADVANCED_FACE('',(#194,#195),#13,.F.);
#218=ADVANCED_FACE('',(#196,#197),#14,.F.);
#219=ADVANCED_FACE('',(#198,#199),#15,.F.);
#220=ADVANCED_FACE('',(#200,#201),#16,.F.);
#221=ADVANCED_FACE('',(#202,#203),#17,.F.);
#222=ADVANCED_FACE('',(#204),#210,.T.);
#223=ADVANCED_FACE('',(#205),#211,.F.);
#224=CLOSED_SHELL('',(#212,#213,#214,#215,#216,#217,#218,#219,#220,#221,
#222,#223));
#225=STYLED_ITEM('',(#226),#233);
#226=PRESENTATION_STYLE_ASSIGNMENT((#227));
#227=SURFACE_STYLE_USAGE(.BOTH.,#228);
#228=SURFACE_SIDE_STYLE('',(#229));
#229=SURFACE_STYLE_FILL_AREA(#230);
#230=FILL_AREA_STYLE('',(#231));
#231=FILL_AREA_STYLE_COLOUR('',#232);
#232=COLOUR_RGB('',0.615686274509804,0.811764705882353,0.929411764705882);
#233=MANIFOLD_SOLID_BREP('Part 1',#224);
#234=SHAPE_DEFINITION_REPRESENTATION(#386,#235);
#235=SHAPE_REPRESENTATION('Part 1',(#236),#381);
#236=AXIS2_PLACEMENT_3D('',#323,#261,#262);
#237=AXIS2_PLACEMENT_3D('',#324,#263,#264);
#238=AXIS2_PLACEMENT_3D('',#325,#265,#266);
#239=AXIS2_PLACEMENT_3D('',#327,#267,#268);
#240=AXIS2_PLACEMENT_3D('',#329,#269,#270);
#241=AXIS2_PLACEMENT_3D('',#331,#271,#272);
#242=AXIS2_PLACEMENT_3D('',#333,#273,#274);
#243=AXIS2_PLACEMENT_3D('',#335,#275,#276);
#244=AXIS2_PLACEMENT_3D('',#345,#281,#282);
#245=AXIS2_PLACEMENT_3D('',#346,#283,#284);
#246=AXIS2_PLACEMENT_3D('',#348,#285,#286);
#247=AXIS2_PLACEMENT_3D('',#350,#287,#288);
#248=AXIS2_PLACEMENT_3D('',#352,#289,#290);
#249=AXIS2_PLACEMENT_3D('',#354,#291,#292);
#250=AXIS2_PLACEMENT_3D('',#356,#293,#294);
#251=AXIS2_PLACEMENT_3D('',#366,#299,#300);
#252=AXIS2_PLACEMENT_3D('',#369,#303,#304);
#253=AXIS2_PLACEMENT_3D('',#372,#307,#308);
#254=AXIS2_PLACEMENT_3D('',#373,#309,#310);
#255=AXIS2_PLACEMENT_3D('',#374,#311,#312);
#256=AXIS2_PLACEMENT_3D('',#375,#313,#314);
#257=AXIS2_PLACEMENT_3D('',#376,#315,#316);
#258=AXIS2_PLACEMENT_3D('',#377,#317,#318);
#259=AXIS2_PLACEMENT_3D('',#378,#319,#320);
#260=AXIS2_PLACEMENT_3D('',#379,#321,#322);
#261=DIRECTION('',(0.,0.,1.));
#262=DIRECTION('',(1.,0.,0.));
#263=DIRECTION('',(0.,-1.,0.));
#264=DIRECTION('',(1.,0.,0.));
#265=DIRECTION('',(0.,1.,0.));
#266=DIRECTION('',(0.,0.,-1.));
#267=DIRECTION('',(0.,-1.,0.));
#268=DIRECTION('',(0.,0.,-1.));
#269=DIRECTION('',(0.,1.,0.));
#270=DIRECTION('',(0.,0.,-1.));
#271=DIRECTION('',(0.,-1.,0.));
#272=DIRECTION('',(0.,0.,-1.));
#273=DIRECTION('',(0.,-1.,0.));
#274=DIRECTION('',(0.,0.,-1.));
#275=DIRECTION('',(0.,1.,0.));
#276=DIRECTION('',(0.,0.,-1.));
#277=DIRECTION('',(4.50577526227742E-17,0.,1.));
#278=DIRECTION('',(-1.,0.,-2.22044604925032E-16));
#279=DIRECTION('',(9.01155052455484E-17,0.,1.));
#280=DIRECTION('',(-1.,0.,-1.11022302462516E-16));
#281=DIRECTION('',(0.,-1.,0.));
#282=DIRECTION('',(1.,0.,0.));
#283=DIRECTION('',(0.,-1.,0.));
#284=DIRECTION('',(0.,0.,-1.));
#285=DIRECTION('',(0.,-1.,0.));
#286=DIRECTION('',(0.,0.,-1.));
#287=DIRECTION('',(0.,-1.,0.));
#288=DIRECTION('',(0.,0.,-1.));
#289=DIRECTION('',(0.,-1.,0.));
#290=DIRECTION('',(0.,0.,-1.));
#291=DIRECTION('',(0.,-1.,0.));
#292=DIRECTION('',(0.,0.,-1.));
#293=DIRECTION('',(0.,-1.,0.));
#294=DIRECTION('',(0.,0.,-1.));
#295=DIRECTION('',(-1.,0.,-2.22044604925032E-16));
#296=DIRECTION('',(4.50577526227742E-17,0.,1.));
#297=DIRECTION('',(-1.,0.,-1.11022302462516E-16));
#298=DIRECTION('',(9.01155052455484E-17,0.,1.));
#299=DIRECTION('',(-1.,0.,4.50577526227742E-17));
#300=DIRECTION('',(4.50577526227742E-17,0.,1.));
#301=DIRECTION('',(0.,1.,0.));
#302=DIRECTION('',(0.,1.,0.));
#303=DIRECTION('',(-1.,0.,9.01155052455484E-17));
#304=DIRECTION('',(9.01155052455484E-17,0.,1.));
#305=DIRECTION('',(0.,1.,0.));
#306=DIRECTION('',(0.,1.,0.));
#307=DIRECTION('',(0.,-1.,0.));
#308=DIRECTION('',(0.,0.,-1.));
#309=DIRECTION('',(0.,-1.,0.));
#310=DIRECTION('',(0.,0.,-1.));
#311=DIRECTION('',(0.,-1.,0.));
#312=DIRECTION('',(0.,0.,-1.));
#313=DIRECTION('',(0.,-1.,0.));
#314=DIRECTION('',(0.,0.,-1.));
#315=DIRECTION('',(0.,-1.,0.));
#316=DIRECTION('',(0.,0.,-1.));
#317=DIRECTION('',(0.,-1.,0.));
#318=DIRECTION('',(0.,0.,-1.));
#319=DIRECTION('',(1.11022302462516E-16,0.,-1.));
#320=DIRECTION('',(-1.,0.,-1.11022302462516E-16));
#321=DIRECTION('',(2.22044604925032E-16,0.,-1.));
#322=DIRECTION('',(-1.,0.,-2.22044604925032E-16));
#323=CARTESIAN_POINT('',(0.,0.,0.));
#324=CARTESIAN_POINT('',(1.38777878078145E-17,-0.005,0.));
#325=CARTESIAN_POINT('',(0.0466856807470322,-0.005,0.0357778929173946));
#326=CARTESIAN_POINT('',(0.0466856807470322,-0.005,0.0348697539456979));
#327=CARTESIAN_POINT('',(-0.0466856807470322,-0.005,0.0357778929173946));
#328=CARTESIAN_POINT('',(-0.0466856807470322,-0.005,0.0348697539456979));
#329=CARTESIAN_POINT('',(0.0466856807470322,-0.005,-0.0604599490761757));
#330=CARTESIAN_POINT('',(0.0466856807470322,-0.005,-0.0625255343190476));
#331=CARTESIAN_POINT('',(-0.0466856807470322,-0.005,-0.0146831190213561));
#332=CARTESIAN_POINT('',(-0.0466856807470322,-0.005,-0.0157083397461012));
#333=CARTESIAN_POINT('',(-0.0466856807470322,-0.005,-0.0604599490761757));
#334=CARTESIAN_POINT('',(-0.0466856807470322,-0.005,-0.0625255343190476));
#335=CARTESIAN_POINT('',(0.0466856807470322,-0.005,-0.0146831190213561));
#336=CARTESIAN_POINT('',(0.0466856807470322,-0.005,-0.0157083397461012));
#337=CARTESIAN_POINT('',(0.0625,-0.005,-1.38777878078145E-17));
#338=CARTESIAN_POINT('',(0.0625,-0.005,-0.102));
#339=CARTESIAN_POINT('',(0.0625,-0.005,0.072));
#340=CARTESIAN_POINT('',(1.49880108324396E-17,-0.005,0.072));
#341=CARTESIAN_POINT('',(-0.0625,-0.005,0.072));
#342=CARTESIAN_POINT('',(-0.0625,-0.005,0.));
#343=CARTESIAN_POINT('',(-0.0625,-0.005,-0.102));
#344=CARTESIAN_POINT('',(2.77555756156289E-18,-0.005,-0.102));
#345=CARTESIAN_POINT('',(1.38777878078145E-17,0.,0.));
#346=CARTESIAN_POINT('',(0.0466856807470322,0.,-0.0146831190213561));
#347=CARTESIAN_POINT('',(0.0466856807470322,0.,-0.0157083397461012));
#348=CARTESIAN_POINT('',(0.0466856807470322,0.,0.0357778929173946));
#349=CARTESIAN_POINT('',(0.0466856807470322,0.,0.0348697539456979));
#350=CARTESIAN_POINT('',(0.0466856807470322,0.,-0.0604599490761757));
#351=CARTESIAN_POINT('',(0.0466856807470322,0.,-0.0625255343190476));
#352=CARTESIAN_POINT('',(-0.0466856807470322,0.,0.0357778929173946));
#353=CARTESIAN_POINT('',(-0.0466856807470322,0.,0.0348697539456979));
#354=CARTESIAN_POINT('',(-0.0466856807470322,0.,-0.0146831190213561));
#355=CARTESIAN_POINT('',(-0.0466856807470322,0.,-0.0157083397461012));
#356=CARTESIAN_POINT('',(-0.0466856807470322,0.,-0.0604599490761757));
#357=CARTESIAN_POINT('',(-0.0466856807470322,0.,-0.0625255343190476));
#358=CARTESIAN_POINT('',(1.49880108324396E-17,0.,0.072));
#359=CARTESIAN_POINT('',(0.0625,0.,0.072));
#360=CARTESIAN_POINT('',(-0.0625,0.,0.072));
#361=CARTESIAN_POINT('',(0.0625,0.,-1.38777878078145E-17));
#362=CARTESIAN_POINT('',(0.0625,0.,-0.102));
#363=CARTESIAN_POINT('',(2.77555756156289E-18,0.,-0.102));
#364=CARTESIAN_POINT('',(-0.0625,0.,-0.102));
#365=CARTESIAN_POINT('',(-0.0625,0.,0.));
#366=CARTESIAN_POINT('',(0.0625,-0.005,-1.38777878078145E-17));
#367=CARTESIAN_POINT('',(0.0625,-0.005,0.072));
#368=CARTESIAN_POINT('',(0.0625,-0.005,-0.102));
#369=CARTESIAN_POINT('',(-0.0625,-0.005,0.));
#370=CARTESIAN_POINT('',(-0.0625,-0.005,0.072));
#371=CARTESIAN_POINT('',(-0.0625,-0.005,-0.102));
#372=CARTESIAN_POINT('',(-0.0466856807470322,0.02,0.0357778929173946));
#373=CARTESIAN_POINT('',(0.0466856807470322,0.02,-0.0604599490761757));
#374=CARTESIAN_POINT('',(0.0466856807470322,0.02,0.0357778929173946));
#375=CARTESIAN_POINT('',(-0.0466856807470322,0.02,-0.0146831190213561));
#376=CARTESIAN_POINT('',(-0.0466856807470322,0.02,-0.0604599490761757));
#377=CARTESIAN_POINT('',(0.0466856807470322,0.02,-0.0146831190213561));
#378=CARTESIAN_POINT('',(2.77555756156289E-18,-0.005,-0.102));
#379=CARTESIAN_POINT('',(1.49880108324396E-17,-0.005,0.072));
#380=MECHANICAL_DESIGN_GEOMETRIC_PRESENTATION_REPRESENTATION('',(#225),
#381);
#381=(
GEOMETRIC_REPRESENTATION_CONTEXT(3)
GLOBAL_UNCERTAINTY_ASSIGNED_CONTEXT((#382))
GLOBAL_UNIT_ASSIGNED_CONTEXT((#385,#384,#383))
REPRESENTATION_CONTEXT('Part 1','TOP_LEVEL_ASSEMBLY_PART')
);
#382=UNCERTAINTY_MEASURE_WITH_UNIT(LENGTH_MEASURE(1.E-8),#385,
'DISTANCE_ACCURACY_VALUE','Maximum Tolerance applied to model');
#383=(
NAMED_UNIT(*)
SI_UNIT($,.STERADIAN.)
SOLID_ANGLE_UNIT()
);
#384=(
NAMED_UNIT(*)
PLANE_ANGLE_UNIT()
SI_UNIT($,.RADIAN.)
);
#385=(
LENGTH_UNIT()
NAMED_UNIT(*)
SI_UNIT($,.METRE.)
);
#386=PRODUCT_DEFINITION_SHAPE('','',#387);
#387=PRODUCT_DEFINITION('','',#389,#388);
#388=PRODUCT_DEFINITION_CONTEXT('',#395,'design');
#389=PRODUCT_DEFINITION_FORMATION_WITH_SPECIFIED_SOURCE('','',#391,
 .NOT_KNOWN.);
#390=PRODUCT_RELATED_PRODUCT_CATEGORY('','',(#391));
#391=PRODUCT('Part 1','Part 1','Part 1',(#393));
#392=PRODUCT_CATEGORY('','');
#393=PRODUCT_CONTEXT('',#395,'mechanical');
#394=APPLICATION_PROTOCOL_DEFINITION('international standard',
'ap242_managed_model_based_3d_engineering',2020,#395);
#395=APPLICATION_CONTEXT('managed model based 3d engineering');
ENDSEC;
END-ISO-10303-21;
